<svg xmlns="http://www.w3.org/2000/svg" xmlns:xlink="http://www.w3.org/1999/xlink" contentStyleType="text/css" height="628px" preserveAspectRatio="none" style="width:991px;height:628px;background:#FFFFFF;" version="1.1" viewBox="0 0 991 628" width="991px" zoomAndPan="magnify"><script xmlns="" id="__gaOptOutExtension"/><defs/><g><path d="M281.85,118.59 L313.2084,118.59 A3.75,3.75 0 0 1 315.7084,121.09 L322.7084,140.8869 L327.2084,140.8869 A2.5,2.5 0 0 1 329.7084,143.3869 L329.7084,168.6837 A2.5,2.5 0 0 1 327.2084,171.1837 L281.85,171.1837 A2.5,2.5 0 0 1 279.35,168.6837 L279.35,121.09 A2.5,2.5 0 0 1 281.85,118.59 " fill="#F1F1F1" style="stroke:#181818;stroke-width:0.5;"/><line style="stroke:#181818;stroke-width:0.5;" x1="279.35" x2="322.7084" y1="140.8869" y2="140.8869"/><text fill="#000000" font-family="sans-serif" font-size="14" font-weight="bold" lengthAdjust="spacing" textLength="30.3584" x="283.35" y="133.5851">flap</text><path d="M283.79,456.37 L369.2617,456.37 A3.75,3.75 0 0 1 371.7617,458.87 L378.7617,478.6669 L383.2617,478.6669 A2.5,2.5 0 0 1 385.7617,481.1669 L385.7617,506.4637 A2.5,2.5 0 0 1 383.2617,508.9637 L283.79,508.9637 A2.5,2.5 0 0 1 281.29,506.4637 L281.29,458.87 A2.5,2.5 0 0 1 283.79,456.37 " fill="#F1F1F1" style="stroke:#181818;stroke-width:0.5;"/><line style="stroke:#181818;stroke-width:0.5;" x1="281.29" x2="378.7617" y1="478.6669" y2="478.6669"/><text fill="#000000" font-family="sans-serif" font-size="14" font-weight="bold" lengthAdjust="spacing" textLength="84.4717" x="285.29" y="471.3651">flap.config</text><path d="M116.76,343.78 L238.2981,343.78 A3.75,3.75 0 0 1 240.7981,346.28 L247.7981,366.0769 L252.2981,366.0769 A2.5,2.5 0 0 1 254.7981,368.5769 L254.7981,393.8738 A2.5,2.5 0 0 1 252.2981,396.3738 L116.76,396.3738 A2.5,2.5 0 0 1 114.26,393.8738 L114.26,346.28 A2.5,2.5 0 0 1 116.76,343.78 " fill="#F1F1F1" style="stroke:#181818;stroke-width:0.5;"/><line style="stroke:#181818;stroke-width:0.5;" x1="114.26" x2="247.7981" y1="366.0769" y2="366.0769"/><text fill="#000000" font-family="sans-serif" font-size="14" font-weight="bold" lengthAdjust="spacing" textLength="120.5381" x="118.26" y="358.7751">flap.coordinate</text><path d="M467.42,231.18 L595.63,231.18 A3.75,3.75 0 0 1 598.13,233.68 L605.13,253.4769 L609.63,253.4769 A2.5,2.5 0 0 1 612.13,255.9769 L612.13,281.2737 A2.5,2.5 0 0 1 609.63,283.7737 L467.42,283.7737 A2.5,2.5 0 0 1 464.92,281.2737 L464.92,233.68 A2.5,2.5 0 0 1 467.42,231.18 " fill="#F1F1F1" style="stroke:#181818;stroke-width:0.5;"/><line style="stroke:#181818;stroke-width:0.5;" x1="464.92" x2="605.13" y1="253.4769" y2="253.4769"/><text fill="#000000" font-family="sans-serif" font-size="14" font-weight="bold" lengthAdjust="spacing" textLength="127.21" x="468.92" y="246.1751">flap.data_object</text><path d="M649.3,231.18 L751.7521,231.18 A3.75,3.75 0 0 1 754.2521,233.68 L761.2521,253.4769 L765.7521,253.4769 A2.5,2.5 0 0 1 768.2521,255.9769 L768.2521,281.2737 A2.5,2.5 0 0 1 765.7521,283.7737 L649.3,283.7737 A2.5,2.5 0 0 1 646.8,281.2737 L646.8,233.68 A2.5,2.5 0 0 1 649.3,231.18 " fill="#F1F1F1" style="stroke:#181818;stroke-width:0.5;"/><line style="stroke:#181818;stroke-width:0.5;" x1="646.8" x2="761.2521" y1="253.4769" y2="253.4769"/><text fill="#000000" font-family="sans-serif" font-size="14" font-weight="bold" lengthAdjust="spacing" textLength="101.4521" x="650.8" y="246.1751">flap.flap_xml</text><path d="M292.62,343.78 L360.4276,343.78 A3.75,3.75 0 0 1 362.9276,346.28 L369.9276,366.0769 L374.4276,366.0769 A2.5,2.5 0 0 1 376.9276,368.5769 L376.9276,393.8738 A2.5,2.5 0 0 1 374.4276,396.3738 L292.62,396.3738 A2.5,2.5 0 0 1 290.12,393.8738 L290.12,346.28 A2.5,2.5 0 0 1 292.62,343.78 " fill="#F1F1F1" style="stroke:#181818;stroke-width:0.5;"/><line style="stroke:#181818;stroke-width:0.5;" x1="290.12" x2="369.9276" y1="366.0769" y2="366.0769"/><text fill="#000000" font-family="sans-serif" font-size="14" font-weight="bold" lengthAdjust="spacing" textLength="66.8076" x="294.12" y="358.7751">flap.plot</text><path d="M116.63,231.18 L200.42,231.18 A3.75,3.75 0 0 1 202.92,233.68 L209.92,253.4769 L214.42,253.4769 A2.5,2.5 0 0 1 216.92,255.9769 L216.92,281.2737 A2.5,2.5 0 0 1 214.42,283.7737 L116.63,283.7737 A2.5,2.5 0 0 1 114.13,281.2737 L114.13,233.68 A2.5,2.5 0 0 1 116.63,231.18 " fill="#F1F1F1" style="stroke:#181818;stroke-width:0.5;"/><line style="stroke:#181818;stroke-width:0.5;" x1="114.13" x2="209.92" y1="253.4769" y2="253.4769"/><text fill="#000000" font-family="sans-serif" font-size="14" font-weight="bold" lengthAdjust="spacing" textLength="82.79" x="118.13" y="246.1751">flap.select</text><path d="M414.57,343.78 L586.4889,343.78 A3.75,3.75 0 0 1 588.9889,346.28 L595.9889,366.0769 L600.4889,366.0769 A2.5,2.5 0 0 1 602.9889,368.5769 L602.9889,393.8738 A2.5,2.5 0 0 1 600.4889,396.3738 L414.57,396.3738 A2.5,2.5 0 0 1 412.07,393.8738 L412.07,346.28 A2.5,2.5 0 0 1 414.57,343.78 " fill="#F1F1F1" style="stroke:#181818;stroke-width:0.5;"/><line style="stroke:#181818;stroke-width:0.5;" x1="412.07" x2="595.9889" y1="366.0769" y2="366.0769"/><text fill="#000000" font-family="sans-serif" font-size="14" font-weight="bold" lengthAdjust="spacing" textLength="170.9189" x="416.07" y="358.7751">flap.spectral_analysis</text><path d="M245.78,6 L349.278,6 A3.75,3.75 0 0 1 351.778,8.5 L358.778,28.2969 L363.278,28.2969 A2.5,2.5 0 0 1 365.778,30.7969 L365.778,56.0938 A2.5,2.5 0 0 1 363.278,58.5938 L245.78,58.5938 A2.5,2.5 0 0 1 243.28,56.0938 L243.28,8.5 A2.5,2.5 0 0 1 245.78,6 " fill="#F1F1F1" style="stroke:#181818;stroke-width:0.5;"/><line style="stroke:#181818;stroke-width:0.5;" x1="243.28" x2="358.778" y1="28.2969" y2="28.2969"/><text fill="#000000" font-family="sans-serif" font-size="14" font-weight="bold" lengthAdjust="spacing" textLength="102.498" x="247.28" y="20.9951">flap.testdata</text><path d="M640.59,343.78 L870.4572,343.78 A3.75,3.75 0 0 1 872.9572,346.28 L879.9572,366.0769 L884.4572,366.0769 A2.5,2.5 0 0 1 886.9572,368.5769 L886.9572,393.8738 A2.5,2.5 0 0 1 884.4572,396.3738 L640.59,396.3738 A2.5,2.5 0 0 1 638.09,393.8738 L638.09,346.28 A2.5,2.5 0 0 1 640.59,343.78 " fill="#F1F1F1" style="stroke:#181818;stroke-width:0.5;"/><line style="stroke:#181818;stroke-width:0.5;" x1="638.09" x2="879.9572" y1="366.0769" y2="366.0769"/><text fill="#000000" font-family="sans-serif" font-size="14" font-weight="bold" lengthAdjust="spacing" textLength="228.8672" x="642.09" y="358.7751">flap.time_frequency_analysis</text><path d="M139.66,568.97 L215.3973,568.97 A3.75,3.75 0 0 1 217.8973,571.47 L224.8973,591.2669 L229.3973,591.2669 A2.5,2.5 0 0 1 231.8973,593.7669 L231.8973,619.0637 A2.5,2.5 0 0 1 229.3973,621.5637 L139.66,621.5637 A2.5,2.5 0 0 1 137.16,619.0637 L137.16,571.47 A2.5,2.5 0 0 1 139.66,568.97 " fill="#F1F1F1" style="stroke:#181818;stroke-width:0.5;"/><line style="stroke:#181818;stroke-width:0.5;" x1="137.16" x2="224.8973" y1="591.2669" y2="591.2669"/><text fill="#000000" font-family="sans-serif" font-size="14" font-weight="bold" lengthAdjust="spacing" textLength="74.7373" x="141.16" y="583.9651">flap.tools</text><!--link flap to flap.coordinate--><g id="link_flap_flap.coordinate"><path codeLine="24" d="M292.08,171.54 C278.43,199.42 255.63,245.14 234.53,283.78 C223.42,304.12 213.2052,321.574 203.1152,338.404 " fill="none" id="flap-to-flap.coordinate" style="stroke:#181818;stroke-width:1.0;"/><polygon fill="#181818" points="200.03,343.55,208.0885,337.8877,202.601,339.2616,201.2271,333.7742,200.03,343.55" style="stroke:#181818;stroke-width:1.0;"/></g><!--link flap to flap.data_object--><g id="link_flap_flap.data_object"><path codeLine="25" d="M330.01,157.93 C366.85,175.34 430.4455,205.3959 478.9555,228.3259 " fill="none" id="flap-to-flap.data_object" style="stroke:#181818;stroke-width:1.0;"/><polygon fill="#181818" points="484.38,230.89,477.9526,223.4275,479.8596,228.7533,474.5338,230.6602,484.38,230.89" style="stroke:#181818;stroke-width:1.0;"/></g><!--link flap to flap.flap_xml--><g id="link_flap_flap.flap_xml"><path codeLine="26" d="M329.95,152.04 C384.89,165.44 518.69,198.7 629.53,231.18 C634.99,232.79 634.9197,232.7313 640.5897,234.4913 " fill="none" id="flap-to-flap.flap_xml" style="stroke:#181818;stroke-width:1.0;"/><polygon fill="#181818" points="646.32,236.27,638.9104,229.7817,641.5448,234.7877,636.5388,237.4221,646.32,236.27" style="stroke:#181818;stroke-width:1.0;"/></g><!--link flap to flap.plot--><g id="link_flap_flap.plot"><path codeLine="27" d="M307.85,171.49 C313.43,214.43 323.8373,294.51 329.4173,337.48 " fill="none" id="flap-to-flap.plot" style="stroke:#181818;stroke-width:1.0;"/><polygon fill="#181818" points="330.19,343.43,332.9977,333.9898,329.5461,338.4716,325.0643,335.02,330.19,343.43" style="stroke:#181818;stroke-width:1.0;"/></g><!--link flap to flap.select--><g id="link_flap_flap.select"><path codeLine="28" d="M279.03,166.17 C256.15,184.38 227.1456,207.4548 202.4056,227.1348 " fill="none" id="flap-to-flap.select" style="stroke:#181818;stroke-width:1.0;"/><polygon fill="#181818" points="197.71,230.87,207.2435,228.3976,201.623,227.7573,202.2632,222.1368,197.71,230.87" style="stroke:#181818;stroke-width:1.0;"/></g><!--link flap to flap.spectral_analysis--><g id="link_flap_flap.spectral_analysis"><path codeLine="29" d="M327.81,171.49 C366.87,214.43 441.083,296.0212 480.163,338.9912 " fill="none" id="flap-to-flap.spectral_analysis" style="stroke:#181818;stroke-width:1.0;"/><polygon fill="#181818" points="484.2,343.43,481.1038,334.0805,480.8359,339.731,475.1854,339.4631,484.2,343.43" style="stroke:#181818;stroke-width:1.0;"/></g><!--link flap to flap.tools--><g id="link_flap_flap.tools"><path codeLine="30" d="M278.99,146.86 C229.11,150.23 123.77,165.22 79.53,231.18 C6,340.8 101.1503,500.9512 153.3703,563.9312 " fill="none" id="flap-to-flap.tools" style="stroke:#181818;stroke-width:1.0;"/><polygon fill="#181818" points="157.2,568.55,154.5347,559.0687,154.0086,564.701,148.3762,564.1749,157.2,568.55" style="stroke:#181818;stroke-width:1.0;"/></g><!--link flap.tools to flap--><g id="link_flap.tools_flap"><path codeLine="43" d="M174.62,568.55 C139.98,505.57 41,340.8 114.53,231.18 C152.57,174.46 229.8642,156.3057 272.9742,149.9457 " fill="none" id="flap.tools-to-flap" style="stroke:#181818;stroke-width:1.0;"/><polygon fill="#181818" points="278.91,149.07,269.4226,146.4264,273.9635,149.7997,270.5902,154.3407,278.91,149.07" style="stroke:#181818;stroke-width:1.0;"/></g><!--link flap.config to flap.tools--><g id="link_flap.config_flap.tools"><path codeLine="31" d="M298.97,509.32 C274.98,527.12 247.9782,547.1745 223.9782,564.9845 " fill="none" id="flap.config-to-flap.tools" style="stroke:#181818;stroke-width:1.0;"/><polygon fill="#181818" points="219.16,568.56,228.7711,566.4089,223.1752,565.5804,224.0037,559.9845,219.16,568.56" style="stroke:#181818;stroke-width:1.0;"/></g><!--link flap.coordinate to flap.config--><g id="link_flap.coordinate_flap.config"><path codeLine="32" d="M219.08,396.73 C243.07,414.53 270.0827,434.5732 294.0827,452.3932 " fill="none" id="flap.coordinate-to-flap.config" style="stroke:#181818;stroke-width:1.0;"/><polygon fill="#181818" points="298.9,455.97,294.0586,447.3932,294.8856,452.9893,289.2895,453.8163,298.9,455.97" style="stroke:#181818;stroke-width:1.0;"/></g><!--link flap.coordinate to flap.tools--><g id="link_flap.coordinate_flap.tools"><path codeLine="33" d="M184.53,396.68 C184.53,439.62 184.53,519.65 184.53,562.62 " fill="none" id="flap.coordinate-to-flap.tools" style="stroke:#181818;stroke-width:1.0;"/><polygon fill="#181818" points="184.53,568.62,188.53,559.62,184.53,563.62,180.53,559.62,184.53,568.62" style="stroke:#181818;stroke-width:1.0;"/></g><!--link flap.data_object to flap.plot--><g id="link_flap.data_object_flap.plot"><path codeLine="34" d="M490.72,284.27 C456.41,302.78 415.8206,324.6813 382.4906,342.6613 " fill="none" id="flap.data_object-to-flap.plot" style="stroke:#181818;stroke-width:1.0;"/><polygon fill="#181818" points="377.21,345.51,387.0301,344.7574,381.6105,343.1361,383.2318,337.7166,377.21,345.51" style="stroke:#181818;stroke-width:1.0;"/></g><!--link flap.data_object to flap.spectral_analysis--><g id="link_flap.data_object_flap.spectral_analysis"><path codeLine="35" d="M531.34,284.13 C526.33,302 521.3001,319.9529 516.3001,337.7829 " fill="none" id="flap.data_object-to-flap.spectral_analysis" style="stroke:#181818;stroke-width:1.0;"/><polygon fill="#181818" points="514.68,343.56,520.9615,335.9743,516.0301,338.7457,513.2587,333.8142,514.68,343.56" style="stroke:#181818;stroke-width:1.0;"/></g><!--link flap.data_object to flap.time_frequency_analysis--><g id="link_flap.data_object_flap.time_frequency_analysis"><path codeLine="36" d="M590.76,284.27 C626.83,302.08 669.2101,323.0036 705.2201,340.7836 " fill="none" id="flap.data_object-to-flap.time_frequency_analysis" style="stroke:#181818;stroke-width:1.0;"/><polygon fill="#181818" points="710.6,343.44,704.301,335.8688,706.1167,341.2264,700.7592,343.0421,710.6,343.44" style="stroke:#181818;stroke-width:1.0;"/></g><!--link flap.data_object to flap.tools--><g id="link_flap.data_object_flap.tools"><path codeLine="37" d="M612.43,279.4 C618.21,280.92 623.96,282.4 629.53,283.78 C757.72,315.55 984.59,291.34 904.53,396.37 C820.98,505.98 385.4829,569.2794 238.2929,587.8394 " fill="none" id="flap.data_object-to-flap.tools" style="stroke:#181818;stroke-width:1.0;"/><polygon fill="#181818" points="232.34,588.59,241.7697,591.4326,237.3007,587.9645,240.7689,583.4955,232.34,588.59" style="stroke:#181818;stroke-width:1.0;"/></g><!--link flap.plot to flap.config--><g id="link_flap.plot_flap.config"><path codeLine="38" d="M333.53,396.73 C333.53,414.59 333.53,432.32 333.53,450.16 " fill="none" id="flap.plot-to-flap.config" style="stroke:#181818;stroke-width:1.0;"/><polygon fill="#181818" points="333.53,456.16,337.53,447.16,333.53,451.16,329.53,447.16,333.53,456.16" style="stroke:#181818;stroke-width:1.0;"/></g><!--link flap.select to flap.coordinate--><g id="link_flap.select_flap.coordinate"><path codeLine="39" d="M169.93,284.13 C173,302 176.0651,319.8165 179.1251,337.6465 " fill="none" id="flap.select-to-flap.coordinate" style="stroke:#181818;stroke-width:1.0;"/><polygon fill="#181818" points="180.14,343.56,182.56,334.0131,179.2943,338.632,174.6753,335.3663,180.14,343.56" style="stroke:#181818;stroke-width:1.0;"/></g><!--link flap.spectral_analysis to flap.config--><g id="link_flap.spectral_analysis_flap.config"><path codeLine="40" d="M467.17,396.73 C439.16,414.53 407.0529,434.9302 379.0329,452.7502 " fill="none" id="flap.spectral_analysis-to-flap.config" style="stroke:#181818;stroke-width:1.0;"/><polygon fill="#181818" points="373.97,455.97,383.7109,454.5155,378.1891,453.2868,379.4177,447.765,373.97,455.97" style="stroke:#181818;stroke-width:1.0;"/></g><!--link flap.testdata to flap--><g id="link_flap.testdata_flap"><path codeLine="41" d="M304.53,58.94 C304.53,76.81 304.53,94.54 304.53,112.38 " fill="none" id="flap.testdata-to-flap" style="stroke:#181818;stroke-width:1.0;"/><polygon fill="#181818" points="304.53,118.38,308.53,109.38,304.53,113.38,300.53,109.38,304.53,118.38" style="stroke:#181818;stroke-width:1.0;"/></g><!--link flap.time_frequency_analysis to flap.config--><g id="link_flap.time_frequency_analysis_flap.config"><path codeLine="42" d="M662.49,396.87 C576.08,419.14 460.43,448.952 391.86,466.632 " fill="none" id="flap.time_frequency_analysis-to-flap.config" style="stroke:#181818;stroke-width:1.0;"/><polygon fill="#181818" points="386.05,468.13,395.7637,469.7563,390.8917,466.8816,393.7663,462.0096,386.05,468.13" style="stroke:#181818;stroke-width:1.0;"/></g><!--SRC=[VL9TRiCW37xFAL3VsoFi4Zj0vALEbOq00oQjcdht5LeIr_tIboXyFmRRN-9i7CsS0Wtype4YPH-DyuwxA_H59pQxqLBO6Kgc_9Y_xl987GRlnkcqAEvdAFJnE3dABCKD0uOZPUhznoSFUNK845ZAf_-TxQfl2107wqNXSWAYnFRX_jiP2SCLZsHxScJFQKh2eobWpvnowMrrDGI9fvdxCVBt3xlX36xS4A1ItbjfBCSgg-lUxz_qeXGXzg6ODda5bpahw3PJ3UgXARw-j9EHmzGICD5BaM_pmYxJzjm1fl73iNPZJwySw-DgOc5Nzv1kRGy44fPP4jZOxcMuS8qQg4Rz0m00]--></g></svg>