<svg xmlns="http://www.w3.org/2000/svg" xmlns:xlink="http://www.w3.org/1999/xlink" contentStyleType="text/css" height="1338px" preserveAspectRatio="none" style="width:2134px;height:1338px;background:#FFFFFF;" version="1.1" viewBox="0 0 2134 1338" width="2134px" zoomAndPan="magnify"><script xmlns="" id="__gaOptOutExtension"/><defs/><g><!--class flap.config.Config--><g id="elem_flap.config.Config"><rect codeLine="2" fill="#F1F1F1" height="80.5938" id="flap.config.Config" rx="2.5" ry="2.5" style="stroke:#181818;stroke-width:0.5;" width="157.8174" x="76.92" y="80.34"/><ellipse cx="129.1192" cy="96.34" fill="#ADD1B2" rx="11" ry="11" style="stroke:#181818;stroke-width:1.0;"/><path d="M132.088,101.9806 Q131.5098,102.2775 130.8692,102.4181 Q130.2286,102.5744 129.5255,102.5744 Q127.0255,102.5744 125.6973,100.9337 Q124.3848,99.2775 124.3848,96.1525 Q124.3848,93.0275 125.6973,91.3712 Q127.0255,89.715 129.5255,89.715 Q130.2286,89.715 130.8692,89.8712 Q131.5255,90.0275 132.088,90.3244 L132.088,93.0431 Q131.463,92.465 130.8692,92.1994 Q130.2755,91.9181 129.6505,91.9181 Q128.3067,91.9181 127.6192,92.9962 Q126.9317,94.0587 126.9317,96.1525 Q126.9317,98.2462 127.6192,99.3244 Q128.3067,100.3869 129.6505,100.3869 Q130.2755,100.3869 130.8692,100.1212 Q131.463,99.84 132.088,99.2619 L132.088,101.9806 Z " fill="#000000"/><text fill="#000000" font-family="sans-serif" font-size="14" lengthAdjust="spacing" textLength="44.9189" x="149.6192" y="101.1867">Config</text><line style="stroke:#181818;stroke-width:0.5;" x1="77.92" x2="233.7374" y1="112.34" y2="112.34"/><text fill="#000000" font-family="sans-serif" font-size="14" lengthAdjust="spacing" textLength="145.8174" x="82.92" y="129.3351">config : ConfigParser</text><text fill="#000000" font-family="sans-serif" font-size="14" lengthAdjust="spacing" textLength="100.1807" x="82.92" y="145.632">file_name : str</text><line style="stroke:#181818;stroke-width:0.5;" x1="77.92" x2="233.7374" y1="152.9337" y2="152.9337"/></g><!--class flap.coordinate.Coordinate--><g id="elem_flap.coordinate.Coordinate"><rect codeLine="6" fill="#F1F1F1" height="341.3438" id="flap.coordinate.Coordinate" rx="2.5" ry="2.5" style="stroke:#181818;stroke-width:0.5;" width="259.4814" x="1227.09" y="506.83"/><ellipse cx="1314.0841" cy="522.83" fill="#ADD1B2" rx="11" ry="11" style="stroke:#181818;stroke-width:1.0;"/><path d="M1317.0529,528.4706 Q1316.4748,528.7675 1315.8341,528.9081 Q1315.1935,529.0644 1314.4904,529.0644 Q1311.9904,529.0644 1310.6623,527.4238 Q1309.3498,525.7675 1309.3498,522.6425 Q1309.3498,519.5175 1310.6623,517.8613 Q1311.9904,516.205 1314.4904,516.205 Q1315.1935,516.205 1315.8341,516.3613 Q1316.4904,516.5175 1317.0529,516.8144 L1317.0529,519.5331 Q1316.4279,518.955 1315.8341,518.6894 Q1315.2404,518.4081 1314.6154,518.4081 Q1313.2716,518.4081 1312.5841,519.4863 Q1311.8966,520.5488 1311.8966,522.6425 Q1311.8966,524.7363 1312.5841,525.8144 Q1313.2716,526.8769 1314.6154,526.8769 Q1315.2404,526.8769 1315.8341,526.6113 Q1316.4279,526.33 1317.0529,525.7519 L1317.0529,528.4706 Z " fill="#000000"/><text fill="#000000" font-family="sans-serif" font-size="14" lengthAdjust="spacing" textLength="76.9932" x="1334.5841" y="527.6767">Coordinate</text><line style="stroke:#181818;stroke-width:0.5;" x1="1228.09" x2="1485.5714" y1="538.83" y2="538.83"/><text fill="#000000" font-family="sans-serif" font-size="14" lengthAdjust="spacing" textLength="55.4053" x="1233.09" y="555.8251">c_range</text><text fill="#000000" font-family="sans-serif" font-size="14" lengthAdjust="spacing" textLength="100.085" x="1233.09" y="572.122">dimension_list</text><text fill="#000000" font-family="sans-serif" font-size="14" lengthAdjust="spacing" textLength="39.7031" x="1233.09" y="588.4189">mode</text><text fill="#000000" font-family="sans-serif" font-size="14" lengthAdjust="spacing" textLength="42.2461" x="1233.09" y="604.7157">shape</text><text fill="#000000" font-family="sans-serif" font-size="14" lengthAdjust="spacing" textLength="32.6074" x="1233.09" y="621.0126">start</text><text fill="#000000" font-family="sans-serif" font-size="14" lengthAdjust="spacing" textLength="30.2832" x="1233.09" y="637.3095">step</text><text fill="#000000" font-family="sans-serif" font-size="14" lengthAdjust="spacing" textLength="27.125" x="1233.09" y="653.6064">unit</text><text fill="#000000" font-family="sans-serif" font-size="14" lengthAdjust="spacing" textLength="83.7881" x="1233.09" y="669.9032">value_index</text><text fill="#000000" font-family="sans-serif" font-size="14" lengthAdjust="spacing" textLength="191.0371" x="1233.09" y="686.2001">value_ranges : list, ndarray</text><text fill="#000000" font-family="sans-serif" font-size="14" lengthAdjust="spacing" textLength="113.8662" x="1233.09" y="702.497">values : ndarray</text><line style="stroke:#181818;stroke-width:0.5;" x1="1228.09" x2="1485.5714" y1="709.7988" y2="709.7988"/><text fill="#000000" font-family="sans-serif" font-size="14" lengthAdjust="spacing" textLength="149.2627" x="1233.09" y="726.7939">change_dimensions()</text><text fill="#000000" font-family="sans-serif" font-size="14" lengthAdjust="spacing" textLength="231.1504" x="1233.09" y="743.0907">data(data_shape, index, options)</text><text fill="#000000" font-family="sans-serif" font-size="14" lengthAdjust="spacing" textLength="170.9463" x="1233.09" y="759.3876">data_range(data_shape)</text><text fill="#000000" font-family="sans-serif" font-size="14" lengthAdjust="spacing" textLength="51.085" x="1233.09" y="775.6845">dtype()</text><text fill="#000000" font-family="sans-serif" font-size="14" lengthAdjust="spacing" textLength="79.4473" x="1233.09" y="791.9814">isnumeric()</text><text fill="#000000" font-family="sans-serif" font-size="14" lengthAdjust="spacing" textLength="247.4814" x="1233.09" y="808.2782">nochange_dimensions(data_shape)</text><text fill="#000000" font-family="sans-serif" font-size="14" lengthAdjust="spacing" textLength="178.9785" x="1233.09" y="824.5751">non_interpol(data_shape)</text><text fill="#000000" font-family="sans-serif" font-size="14" lengthAdjust="spacing" textLength="114.4404" x="1233.09" y="840.872">string_subtype()</text></g><!--class flap.coordinate.CoordinateMode--><g id="elem_flap.coordinate.CoordinateMode"><rect codeLine="26" fill="#F1F1F1" height="80.5938" id="flap.coordinate.CoordinateMode" rx="2.5" ry="2.5" style="stroke:#181818;stroke-width:0.5;" width="177.5322" x="1268.07" y="80.34"/><ellipse cx="1296.7475" cy="96.34" fill="#ADD1B2" rx="11" ry="11" style="stroke:#181818;stroke-width:1.0;"/><path d="M1299.7163,101.9806 Q1299.1382,102.2775 1298.4975,102.4181 Q1297.8569,102.5744 1297.1538,102.5744 Q1294.6538,102.5744 1293.3257,100.9337 Q1292.0132,99.2775 1292.0132,96.1525 Q1292.0132,93.0275 1293.3257,91.3712 Q1294.6538,89.715 1297.1538,89.715 Q1297.8569,89.715 1298.4975,89.8712 Q1299.1538,90.0275 1299.7163,90.3244 L1299.7163,93.0431 Q1299.0913,92.465 1298.4975,92.1994 Q1297.9038,91.9181 1297.2788,91.9181 Q1295.935,91.9181 1295.2475,92.9962 Q1294.56,94.0587 1294.56,96.1525 Q1294.56,98.2462 1295.2475,99.3244 Q1295.935,100.3869 1297.2788,100.3869 Q1297.9038,100.3869 1298.4975,100.1212 Q1299.0913,99.84 1299.7163,99.2619 L1299.7163,101.9806 Z " fill="#000000"/><text fill="#000000" font-family="sans-serif" font-size="14" lengthAdjust="spacing" textLength="115.1377" x="1313.787" y="101.1867">CoordinateMode</text><line style="stroke:#181818;stroke-width:0.5;" x1="1269.07" x2="1444.6022" y1="112.34" y2="112.34"/><text fill="#000000" font-family="sans-serif" font-size="14" lengthAdjust="spacing" textLength="122.2881" x="1274.07" y="129.3351">equidistant : bool</text><text fill="#000000" font-family="sans-serif" font-size="14" lengthAdjust="spacing" textLength="165.5322" x="1274.07" y="145.632">range_symmetric : bool</text><line style="stroke:#181818;stroke-width:0.5;" x1="1269.07" x2="1444.6022" y1="152.9337" y2="152.9337"/></g><!--class flap.data_object.DataObject--><g id="elem_flap.data_object.DataObject"><rect codeLine="30" fill="#F1F1F1" height="716.1719" id="flap.data_object.DataObject" rx="2.5" ry="2.5" style="stroke:#181818;stroke-width:0.5;" width="605.9951" x="1521.84" y="319.41"/><ellipse cx="1781.0758" cy="335.41" fill="#ADD1B2" rx="11" ry="11" style="stroke:#181818;stroke-width:1.0;"/><path d="M1784.0446,341.0506 Q1783.4665,341.3475 1782.8258,341.4881 Q1782.1852,341.6444 1781.4821,341.6444 Q1778.9821,341.6444 1777.654,340.0037 Q1776.3415,338.3475 1776.3415,335.2225 Q1776.3415,332.0975 1777.654,330.4412 Q1778.9821,328.785 1781.4821,328.785 Q1782.1852,328.785 1782.8258,328.9412 Q1783.4821,329.0975 1784.0446,329.3944 L1784.0446,332.1131 Q1783.4196,331.535 1782.8258,331.2694 Q1782.2321,330.9881 1781.6071,330.9881 Q1780.2633,330.9881 1779.5758,332.0662 Q1778.8883,333.1287 1778.8883,335.2225 Q1778.8883,337.3162 1779.5758,338.3944 Q1780.2633,339.4569 1781.6071,339.4569 Q1782.2321,339.4569 1782.8258,339.1912 Q1783.4196,338.91 1784.0446,338.3319 L1784.0446,341.0506 Z " fill="#000000"/><text fill="#000000" font-family="sans-serif" font-size="14" lengthAdjust="spacing" textLength="79.0234" x="1801.5758" y="340.2567">DataObject</text><line style="stroke:#181818;stroke-width:0.5;" x1="1522.84" x2="2126.8351" y1="351.41" y2="351.41"/><text fill="#000000" font-family="sans-serif" font-size="14" lengthAdjust="spacing" textLength="82.209" x="1527.84" y="368.4051">coordinates</text><text fill="#000000" font-family="sans-serif" font-size="14" lengthAdjust="spacing" textLength="99.8662" x="1527.84" y="384.702">data : ndarray</text><text fill="#000000" font-family="sans-serif" font-size="14" lengthAdjust="spacing" textLength="85.333" x="1527.84" y="400.9989">data_source</text><text fill="#000000" font-family="sans-serif" font-size="14" lengthAdjust="spacing" textLength="65.9053" x="1527.84" y="417.2957">data_title</text><text fill="#000000" font-family="sans-serif" font-size="14" lengthAdjust="spacing" textLength="65.6592" x="1527.84" y="433.5926">data_unit</text><text fill="#000000" font-family="sans-serif" font-size="14" lengthAdjust="spacing" textLength="132.2412" x="1527.84" y="449.8895">error : list, ndarray</text><text fill="#000000" font-family="sans-serif" font-size="14" lengthAdjust="spacing" textLength="45.5615" x="1527.84" y="466.1864">exp_id</text><text fill="#000000" font-family="sans-serif" font-size="14" lengthAdjust="spacing" textLength="48.1523" x="1527.84" y="482.4832">history</text><text fill="#000000" font-family="sans-serif" font-size="14" lengthAdjust="spacing" textLength="26.2568" x="1527.84" y="498.7801">info</text><text fill="#000000" font-family="sans-serif" font-size="14" lengthAdjust="spacing" textLength="110.5781" x="1527.84" y="515.077">shape : ndarray</text><line style="stroke:#181818;stroke-width:0.5;" x1="1522.84" x2="2126.8351" y1="522.3788" y2="522.3788"/><text fill="#000000" font-family="sans-serif" font-size="14" lengthAdjust="spacing" textLength="80.9238" x="1527.84" y="539.3739">abs_value()</text><text fill="#000000" font-family="sans-serif" font-size="14" lengthAdjust="spacing" textLength="410.5596" x="1527.84" y="555.6707">add_coordinate(coordinates, data_source, exp_id, options)</text><text fill="#000000" font-family="sans-serif" font-size="14" lengthAdjust="spacing" textLength="291.6963" x="1527.84" y="571.9676">add_coordinate_object(coordinate, index)</text><text fill="#000000" font-family="sans-serif" font-size="14" lengthAdjust="spacing" textLength="249.5186" x="1527.84" y="588.2645">apsd(coordinate, intervals, options)</text><text fill="#000000" font-family="sans-serif" font-size="14" lengthAdjust="spacing" textLength="264.3936" x="1527.84" y="604.5614">ccf(ref, coordinate, intervals, options)</text><text fill="#000000" font-family="sans-serif" font-size="14" lengthAdjust="spacing" textLength="51.9121" x="1527.84" y="620.8582">check()</text><text fill="#000000" font-family="sans-serif" font-size="14" lengthAdjust="spacing" textLength="233.4541" x="1527.84" y="637.1551">coordinate(name, index, options)</text><text fill="#000000" font-family="sans-serif" font-size="14" lengthAdjust="spacing" textLength="270.8809" x="1527.84" y="653.452">coordinate_change_dimensions(name)</text><text fill="#000000" font-family="sans-serif" font-size="14" lengthAdjust="spacing" textLength="240.208" x="1527.84" y="669.7489">coordinate_change_indices(name)</text><text fill="#000000" font-family="sans-serif" font-size="14" lengthAdjust="spacing" textLength="139.8359" x="1527.84" y="686.0457">coordinate_names()</text><text fill="#000000" font-family="sans-serif" font-size="14" lengthAdjust="spacing" textLength="288.3193" x="1527.84" y="702.3426">coordinate_nochange_dimensions(name)</text><text fill="#000000" font-family="sans-serif" font-size="14" lengthAdjust="spacing" textLength="220.6982" x="1527.84" y="718.6395">coordinate_range(name, index)</text><text fill="#000000" font-family="sans-serif" font-size="14" lengthAdjust="spacing" textLength="276.835" x="1527.84" y="734.9364">cpsd(ref, coordinate, intervals, options)</text><text fill="#000000" font-family="sans-serif" font-size="14" lengthAdjust="spacing" textLength="153.9316" x="1527.84" y="751.2332">del_coordinate(name)</text><text fill="#000000" font-family="sans-serif" font-size="14" lengthAdjust="spacing" textLength="270.9902" x="1527.84" y="767.5301">detrend(coordinate, intervals, options)</text><text fill="#000000" font-family="sans-serif" font-size="14" lengthAdjust="spacing" textLength="142.1738" x="1527.84" y="783.827">error_value(options)</text><text fill="#000000" font-family="sans-serif" font-size="14" lengthAdjust="spacing" textLength="286.9727" x="1527.84" y="800.1239">filter_data(coordinate, intervals, options)</text><text fill="#000000" font-family="sans-serif" font-size="14" lengthAdjust="spacing" textLength="205.6729" x="1527.84" y="816.4207">get_coordinate_object(name)</text><text fill="#000000" font-family="sans-serif" font-size="14" lengthAdjust="spacing" textLength="45.917" x="1527.84" y="832.7176">imag()</text><text fill="#000000" font-family="sans-serif" font-size="14" lengthAdjust="spacing" textLength="311.8828" x="1527.84" y="849.0145">index_from_coordinate(name, coord_values)</text><text fill="#000000" font-family="sans-serif" font-size="14" lengthAdjust="spacing" textLength="238.5742" x="1527.84" y="865.3114">pdf(coordinate, intervals, options)</text><text fill="#000000" font-family="sans-serif" font-size="14" lengthAdjust="spacing" textLength="53.1699" x="1527.84" y="881.6082">phase()</text><text fill="#000000" font-family="sans-serif" font-size="14" lengthAdjust="spacing" textLength="593.9951" x="1527.84" y="897.9051">plot(axes, slicing, slicing_options, summing, options, plot_type, plot_options, plot_id)</text><text fill="#000000" font-family="sans-serif" font-size="14" lengthAdjust="spacing" textLength="291.7783" x="1527.84" y="914.202">proc_interval_limits(coordinate, intervals)</text><text fill="#000000" font-family="sans-serif" font-size="14" lengthAdjust="spacing" textLength="37.7617" x="1527.84" y="930.4989">real()</text><text fill="#000000" font-family="sans-serif" font-size="14" lengthAdjust="spacing" textLength="177.9258" x="1527.84" y="946.7957">regenerate_coordinates()</text><text fill="#000000" font-family="sans-serif" font-size="14" lengthAdjust="spacing" textLength="171.0352" x="1527.84" y="963.0926">save(filename, protocol)</text><text fill="#000000" font-family="sans-serif" font-size="14" lengthAdjust="spacing" textLength="259.7178" x="1527.84" y="979.3895">slice_data(slicing, summing, options)</text><text fill="#000000" font-family="sans-serif" font-size="14" lengthAdjust="spacing" textLength="188.4873" x="1527.84" y="995.6864">slicing_to_intervals(slicing)</text><text fill="#000000" font-family="sans-serif" font-size="14" lengthAdjust="spacing" textLength="169.5039" x="1527.84" y="1011.9832">stft(coordinate, options)</text><text fill="#000000" font-family="sans-serif" font-size="14" lengthAdjust="spacing" textLength="167.5625" x="1527.84" y="1028.2801">to_intervals(coordinate)</text></g><!--class flap.data_object.FlapStorage--><g id="elem_flap.data_object.FlapStorage"><rect codeLine="73" fill="#F1F1F1" height="227.2656" id="flap.data_object.FlapStorage" rx="2.5" ry="2.5" style="stroke:#181818;stroke-width:0.5;" width="453.834" x="269.92" y="7"/><ellipse cx="450.4947" cy="23" fill="#ADD1B2" rx="11" ry="11" style="stroke:#181818;stroke-width:1.0;"/><path d="M453.4635,28.6406 Q452.8853,28.9375 452.2447,29.0781 Q451.6041,29.2344 450.901,29.2344 Q448.401,29.2344 447.0728,27.5938 Q445.7603,25.9375 445.7603,22.8125 Q445.7603,19.6875 447.0728,18.0313 Q448.401,16.375 450.901,16.375 Q451.6041,16.375 452.2447,16.5313 Q452.901,16.6875 453.4635,16.9844 L453.4635,19.7031 Q452.8385,19.125 452.2447,18.8594 Q451.651,18.5781 451.026,18.5781 Q449.6822,18.5781 448.9947,19.6563 Q448.3072,20.7188 448.3072,22.8125 Q448.3072,24.9063 448.9947,25.9844 Q449.6822,27.0469 451.026,27.0469 Q451.651,27.0469 452.2447,26.7813 Q452.8385,26.5 453.4635,25.9219 L453.4635,28.6406 Z " fill="#000000"/><text fill="#000000" font-family="sans-serif" font-size="14" lengthAdjust="spacing" textLength="84.1846" x="470.9947" y="27.8467">FlapStorage</text><line style="stroke:#181818;stroke-width:0.5;" x1="270.92" x2="722.754" y1="39" y2="39"/><line style="stroke:#181818;stroke-width:0.5;" x1="270.92" x2="722.754" y1="47" y2="47"/><text fill="#000000" font-family="sans-serif" font-size="14" lengthAdjust="spacing" textLength="155.2305" x="275.92" y="63.9951">add_coord_functions()</text><text fill="#000000" font-family="sans-serif" font-size="14" lengthAdjust="spacing" textLength="183.4424" x="275.92" y="80.292">add_data_object(d, name)</text><text fill="#000000" font-family="sans-serif" font-size="14" lengthAdjust="spacing" textLength="441.834" x="275.92" y="96.5889">add_data_source(data_source, get_data_func, add_coord_func)</text><text fill="#000000" font-family="sans-serif" font-size="14" lengthAdjust="spacing" textLength="99.8936" x="275.92" y="112.8857">data_objects()</text><text fill="#000000" font-family="sans-serif" font-size="14" lengthAdjust="spacing" textLength="103.5508" x="275.92" y="129.1826">data_sources()</text><text fill="#000000" font-family="sans-serif" font-size="14" lengthAdjust="spacing" textLength="237.8701" x="275.92" y="145.4795">delete_data_object(name, exp_id)</text><text fill="#000000" font-family="sans-serif" font-size="14" lengthAdjust="spacing" textLength="227.6367" x="275.92" y="161.7764">find_data_objects(name, exp_id)</text><text fill="#000000" font-family="sans-serif" font-size="14" lengthAdjust="spacing" textLength="143.9307" x="275.92" y="178.0732">get_data_functions()</text><text fill="#000000" font-family="sans-serif" font-size="14" lengthAdjust="spacing" textLength="216.7539" x="275.92" y="194.3701">get_data_object(name, exp_id)</text><text fill="#000000" font-family="sans-serif" font-size="14" lengthAdjust="spacing" textLength="243.0518" x="275.92" y="210.667">get_data_object_ref(name, exp_id)</text><text fill="#000000" font-family="sans-serif" font-size="14" lengthAdjust="spacing" textLength="221.6211" x="275.92" y="226.9639">list_data_objects(name, exp_id)</text></g><!--class flap.flap_xml.FlapXml--><g id="elem_flap.flap_xml.FlapXml"><rect codeLine="86" fill="#F1F1F1" height="194.6719" id="flap.flap_xml.FlapXml" rx="2.5" ry="2.5" style="stroke:#181818;stroke-width:0.5;" width="475.0527" x="758.31" y="23.3"/><ellipse cx="963.3232" cy="39.3" fill="#ADD1B2" rx="11" ry="11" style="stroke:#181818;stroke-width:1.0;"/><path d="M966.2919,44.9406 Q965.7138,45.2375 965.0732,45.3781 Q964.4326,45.5344 963.7294,45.5344 Q961.2294,45.5344 959.9013,43.8937 Q958.5888,42.2375 958.5888,39.1125 Q958.5888,35.9875 959.9013,34.3312 Q961.2294,32.675 963.7294,32.675 Q964.4326,32.675 965.0732,32.8312 Q965.7294,32.9875 966.2919,33.2844 L966.2919,36.0031 Q965.6669,35.425 965.0732,35.1594 Q964.4794,34.8781 963.8544,34.8781 Q962.5107,34.8781 961.8232,35.9562 Q961.1357,37.0187 961.1357,39.1125 Q961.1357,41.2062 961.8232,42.2844 Q962.5107,43.3469 963.8544,43.3469 Q964.4794,43.3469 965.0732,43.0812 Q965.6669,42.8 966.2919,42.2219 L966.2919,44.9406 Z " fill="#000000"/><text fill="#000000" font-family="sans-serif" font-size="14" lengthAdjust="spacing" textLength="56.5264" x="983.8232" y="44.1467">FlapXml</text><line style="stroke:#181818;stroke-width:0.5;" x1="759.31" x2="1232.3627" y1="55.3" y2="55.3"/><text fill="#000000" font-family="sans-serif" font-size="14" lengthAdjust="spacing" textLength="106.5313" x="764.31" y="72.2951">head : Element</text><text fill="#000000" font-family="sans-serif" font-size="14" lengthAdjust="spacing" textLength="156.625" x="764.31" y="88.592">section_elements : list</text><text fill="#000000" font-family="sans-serif" font-size="14" lengthAdjust="spacing" textLength="91.8955" x="764.31" y="104.8889">sections : list</text><text fill="#000000" font-family="sans-serif" font-size="14" lengthAdjust="spacing" textLength="94.5205" x="764.31" y="121.1857">top : Element</text><line style="stroke:#181818;stroke-width:0.5;" x1="759.31" x2="1232.3627" y1="128.4875" y2="128.4875"/><text fill="#000000" font-family="sans-serif" font-size="14" lengthAdjust="spacing" textLength="463.0527" x="764.31" y="145.4826">add_element(section, element, value, unit, comment, value_type)</text><text fill="#000000" font-family="sans-serif" font-size="14" lengthAdjust="spacing" textLength="226.2695" x="764.31" y="161.7795">create_head(head_name, attrib)</text><text fill="#000000" font-family="sans-serif" font-size="14" lengthAdjust="spacing" textLength="215.6943" x="764.31" y="178.0764">get_element(section, element)</text><text fill="#000000" font-family="sans-serif" font-size="14" lengthAdjust="spacing" textLength="132.1045" x="764.31" y="194.3732">read_file(filename)</text><text fill="#000000" font-family="sans-serif" font-size="14" lengthAdjust="spacing" textLength="135.4678" x="764.31" y="210.6701">write_file(filename)</text></g><!--class flap.coordinate.Intervals--><g id="elem_flap.coordinate.Intervals"><rect codeLine="97" fill="#F1F1F1" height="162.0781" id="flap.coordinate.Intervals" rx="2.5" ry="2.5" style="stroke:#181818;stroke-width:0.5;" width="297.667" x="7" y="596.46"/><ellipse cx="121.1294" cy="612.46" fill="#ADD1B2" rx="11" ry="11" style="stroke:#181818;stroke-width:1.0;"/><path d="M124.0981,618.1006 Q123.52,618.3975 122.8794,618.5381 Q122.2388,618.6944 121.5356,618.6944 Q119.0356,618.6944 117.7075,617.0538 Q116.395,615.3975 116.395,612.2725 Q116.395,609.1475 117.7075,607.4913 Q119.0356,605.835 121.5356,605.835 Q122.2388,605.835 122.8794,605.9913 Q123.5356,606.1475 124.0981,606.4444 L124.0981,609.1631 Q123.4731,608.585 122.8794,608.3194 Q122.2856,608.0381 121.6606,608.0381 Q120.3169,608.0381 119.6294,609.1163 Q118.9419,610.1788 118.9419,612.2725 Q118.9419,614.3663 119.6294,615.4444 Q120.3169,616.5069 121.6606,616.5069 Q122.2856,616.5069 122.8794,616.2413 Q123.4731,615.96 124.0981,615.3819 L124.0981,618.1006 Z " fill="#000000"/><text fill="#000000" font-family="sans-serif" font-size="14" lengthAdjust="spacing" textLength="60.9082" x="141.6294" y="617.3067">Intervals</text><line style="stroke:#181818;stroke-width:0.5;" x1="8" x2="303.667" y1="628.46" y2="628.46"/><text fill="#000000" font-family="sans-serif" font-size="14" lengthAdjust="spacing" textLength="54.6396" x="13" y="645.4551">number</text><text fill="#000000" font-family="sans-serif" font-size="14" lengthAdjust="spacing" textLength="32.6074" x="13" y="661.752">start</text><text fill="#000000" font-family="sans-serif" font-size="14" lengthAdjust="spacing" textLength="30.2832" x="13" y="678.0489">step</text><text fill="#000000" font-family="sans-serif" font-size="14" lengthAdjust="spacing" textLength="30.2354" x="13" y="694.3457">stop</text><line style="stroke:#181818;stroke-width:0.5;" x1="8" x2="303.667" y1="701.6475" y2="701.6475"/><text fill="#000000" font-family="sans-serif" font-size="14" lengthAdjust="spacing" textLength="269.1172" x="13" y="718.6426">interval_limits(limits, partial_intervals)</text><text fill="#000000" font-family="sans-serif" font-size="14" lengthAdjust="spacing" textLength="285.667" x="13" y="734.9395">interval_number(limits, partial_intervals)</text><text fill="#000000" font-family="sans-serif" font-size="14" lengthAdjust="spacing" textLength="61.2773" x="13" y="751.2364">regular()</text></g><!--class flap.plot.PddType--><g id="elem_flap.plot.PddType"><rect codeLine="106" fill="#F1F1F1" height="64.2969" id="flap.plot.PddType" rx="2.5" ry="2.5" style="stroke:#181818;stroke-width:0.5;" width="92.5527" x="339.56" y="645.35"/><ellipse cx="354.56" cy="661.35" fill="#ADD1B2" rx="11" ry="11" style="stroke:#181818;stroke-width:1.0;"/><path d="M357.5288,666.9906 Q356.9506,667.2875 356.31,667.4281 Q355.6694,667.5844 354.9663,667.5844 Q352.4663,667.5844 351.1381,665.9438 Q349.8256,664.2875 349.8256,661.1625 Q349.8256,658.0375 351.1381,656.3813 Q352.4663,654.725 354.9663,654.725 Q355.6694,654.725 356.31,654.8813 Q356.9663,655.0375 357.5288,655.3344 L357.5288,658.0531 Q356.9038,657.475 356.31,657.2094 Q355.7163,656.9281 355.0913,656.9281 Q353.7475,656.9281 353.06,658.0063 Q352.3725,659.0688 352.3725,661.1625 Q352.3725,663.2563 353.06,664.3344 Q353.7475,665.3969 355.0913,665.3969 Q355.7163,665.3969 356.31,665.1313 Q356.9038,664.85 357.5288,664.2719 L357.5288,666.9906 Z " fill="#000000"/><text fill="#000000" font-family="sans-serif" font-size="14" lengthAdjust="spacing" textLength="60.5527" x="368.56" y="666.1967">PddType</text><line style="stroke:#181818;stroke-width:0.5;" x1="340.56" x2="431.1127" y1="677.35" y2="677.35"/><text fill="#000000" font-family="sans-serif" font-size="14" lengthAdjust="spacing" textLength="39.7031" x="345.56" y="694.3451">name</text><line style="stroke:#181818;stroke-width:0.5;" x1="340.56" x2="431.1127" y1="701.6469" y2="701.6469"/></g><!--class flap.plot.PlotAnimation--><g id="elem_flap.plot.PlotAnimation"><rect codeLine="109" fill="#F1F1F1" height="732.4688" id="flap.plot.PlotAnimation" rx="2.5" ry="2.5" style="stroke:#181818;stroke-width:0.5;" width="230.6406" x="467.51" y="311.27"/><ellipse cx="529.6999" cy="327.27" fill="#ADD1B2" rx="11" ry="11" style="stroke:#181818;stroke-width:1.0;"/><path d="M532.6687,332.9106 Q532.0906,333.2075 531.4499,333.3481 Q530.8093,333.5044 530.1062,333.5044 Q527.6062,333.5044 526.2781,331.8638 Q524.9656,330.2075 524.9656,327.0825 Q524.9656,323.9575 526.2781,322.3013 Q527.6062,320.645 530.1062,320.645 Q530.8093,320.645 531.4499,320.8013 Q532.1062,320.9575 532.6687,321.2544 L532.6687,323.9731 Q532.0437,323.395 531.4499,323.1294 Q530.8562,322.8481 530.2312,322.8481 Q528.8874,322.8481 528.1999,323.9263 Q527.5124,324.9888 527.5124,327.0825 Q527.5124,329.1763 528.1999,330.2544 Q528.8874,331.3169 530.2312,331.3169 Q530.8562,331.3169 531.4499,331.0513 Q532.0437,330.77 532.6687,330.1919 L532.6687,332.9106 Z " fill="#000000"/><text fill="#000000" font-family="sans-serif" font-size="14" lengthAdjust="spacing" textLength="97.7607" x="550.1999" y="332.1167">PlotAnimation</text><line style="stroke:#181818;stroke-width:0.5;" x1="468.51" x2="697.1506" y1="343.27" y2="343.27"/><text fill="#000000" font-family="sans-serif" font-size="14" lengthAdjust="spacing" textLength="153.4668" x="473.51" y="360.2651">anim : FuncAnimation</text><text fill="#000000" font-family="sans-serif" font-size="14" lengthAdjust="spacing" textLength="45.6299" x="473.51" y="376.562">ax_act</text><text fill="#000000" font-family="sans-serif" font-size="14" lengthAdjust="spacing" textLength="44.4268" x="473.51" y="392.8589">ax_list</text><text fill="#000000" font-family="sans-serif" font-size="14" lengthAdjust="spacing" textLength="32.7715" x="473.51" y="409.1557">axes</text><text fill="#000000" font-family="sans-serif" font-size="14" lengthAdjust="spacing" textLength="218.6406" x="473.51" y="425.4526">axes_unit_conversion : ndarray</text><text fill="#000000" font-family="sans-serif" font-size="14" lengthAdjust="spacing" textLength="38.8008" x="473.51" y="441.7495">cmap</text><text fill="#000000" font-family="sans-serif" font-size="14" lengthAdjust="spacing" textLength="67.1426" x="473.51" y="458.0464">cmap_obj</text><text fill="#000000" font-family="sans-serif" font-size="14" lengthAdjust="spacing" textLength="133.2734" x="473.51" y="474.3432">contour_levels : int</text><text fill="#000000" font-family="sans-serif" font-size="14" lengthAdjust="spacing" textLength="51.96" x="473.51" y="490.6401">coord_t</text><text fill="#000000" font-family="sans-serif" font-size="14" lengthAdjust="spacing" textLength="54.7559" x="473.51" y="506.937">coord_x</text><text fill="#000000" font-family="sans-serif" font-size="14" lengthAdjust="spacing" textLength="54.7559" x="473.51" y="523.2339">coord_y</text><text fill="#000000" font-family="sans-serif" font-size="14" lengthAdjust="spacing" textLength="144.6416" x="473.51" y="539.5307">current_frame : float</text><text fill="#000000" font-family="sans-serif" font-size="14" lengthAdjust="spacing" textLength="8.8867" x="473.51" y="555.8276">d</text><text fill="#000000" font-family="sans-serif" font-size="14" lengthAdjust="spacing" textLength="101.0352" x="473.51" y="572.1245">efit_data : dict</text><text fill="#000000" font-family="sans-serif" font-size="14" lengthAdjust="spacing" textLength="121.0645" x="473.51" y="588.4214">efit_options : dict</text><text fill="#000000" font-family="sans-serif" font-size="14" lengthAdjust="spacing" textLength="17.7051" x="473.51" y="604.7182">fig</text><text fill="#000000" font-family="sans-serif" font-size="14" lengthAdjust="spacing" textLength="16.1807" x="473.51" y="621.0151">gs</text><text fill="#000000" font-family="sans-serif" font-size="14" lengthAdjust="spacing" textLength="75.1064" x="473.51" y="637.312">image_like</text><text fill="#000000" font-family="sans-serif" font-size="14" lengthAdjust="spacing" textLength="65.1807" x="473.51" y="653.6089">language</text><text fill="#000000" font-family="sans-serif" font-size="14" lengthAdjust="spacing" textLength="139.8633" x="473.51" y="669.9057">locator : LogLocator</text><text fill="#000000" font-family="sans-serif" font-size="14" lengthAdjust="spacing" textLength="88.8809" x="473.51" y="686.2026">norm : Norm</text><text fill="#000000" font-family="sans-serif" font-size="14" lengthAdjust="spacing" textLength="51.5635" x="473.51" y="702.4995">options</text><text fill="#000000" font-family="sans-serif" font-size="14" lengthAdjust="spacing" textLength="85.7705" x="473.51" y="718.7964">pause : bool</text><text fill="#000000" font-family="sans-serif" font-size="14" lengthAdjust="spacing" textLength="155.9346" x="473.51" y="735.0932">pause_button : Button</text><text fill="#000000" font-family="sans-serif" font-size="14" lengthAdjust="spacing" textLength="46.6074" x="473.51" y="751.3901">plot_id</text><text fill="#000000" font-family="sans-serif" font-size="14" lengthAdjust="spacing" textLength="85.3945" x="473.51" y="767.687">plot_options</text><text fill="#000000" font-family="sans-serif" font-size="14" lengthAdjust="spacing" textLength="144.8877" x="473.51" y="783.9839">slow_button : Button</text><text fill="#000000" font-family="sans-serif" font-size="14" lengthAdjust="spacing" textLength="87.3633" x="473.51" y="800.2807">speed : float</text><text fill="#000000" font-family="sans-serif" font-size="14" lengthAdjust="spacing" textLength="155.9824" x="473.51" y="816.5776">speed_button : Button</text><text fill="#000000" font-family="sans-serif" font-size="14" lengthAdjust="spacing" textLength="37.0234" x="473.51" y="832.8745">tdata</text><text fill="#000000" font-family="sans-serif" font-size="14" lengthAdjust="spacing" textLength="130.498" x="473.51" y="849.1714">time_slider : Slider</text><text fill="#000000" font-family="sans-serif" font-size="14" lengthAdjust="spacing" textLength="38.7871" x="473.51" y="865.4682">vmax</text><text fill="#000000" font-family="sans-serif" font-size="14" lengthAdjust="spacing" textLength="34.6855" x="473.51" y="881.7651">vmin</text><text fill="#000000" font-family="sans-serif" font-size="14" lengthAdjust="spacing" textLength="39.8193" x="473.51" y="898.062">xdata</text><text fill="#000000" font-family="sans-serif" font-size="14" lengthAdjust="spacing" textLength="87.5273" x="473.51" y="914.3589">xdata_range</text><text fill="#000000" font-family="sans-serif" font-size="14" lengthAdjust="spacing" textLength="48.9932" x="473.51" y="930.6557">xrange</text><text fill="#000000" font-family="sans-serif" font-size="14" lengthAdjust="spacing" textLength="39.8193" x="473.51" y="946.9526">ydata</text><text fill="#000000" font-family="sans-serif" font-size="14" lengthAdjust="spacing" textLength="87.5273" x="473.51" y="963.2495">ydata_range</text><text fill="#000000" font-family="sans-serif" font-size="14" lengthAdjust="spacing" textLength="48.9932" x="473.51" y="979.5464">yrange</text><text fill="#000000" font-family="sans-serif" font-size="14" lengthAdjust="spacing" textLength="82.2363" x="473.51" y="995.8432">zrange : list</text><line style="stroke:#181818;stroke-width:0.5;" x1="468.51" x2="697.1506" y1="1003.145" y2="1003.145"/><text fill="#000000" font-family="sans-serif" font-size="14" lengthAdjust="spacing" textLength="68.585" x="473.51" y="1020.1401">animate()</text><text fill="#000000" font-family="sans-serif" font-size="14" lengthAdjust="spacing" textLength="111.7949" x="473.51" y="1036.437">animate_plot(it)</text></g><!--class flap.plot.PlotDataDescription--><g id="elem_flap.plot.PlotDataDescription"><rect codeLine="153" fill="#F1F1F1" height="129.4844" id="flap.plot.PlotDataDescription" rx="2.5" ry="2.5" style="stroke:#181818;stroke-width:0.5;" width="238.707" x="36.48" y="1153.63"/><ellipse cx="81.8091" cy="1169.63" fill="#ADD1B2" rx="11" ry="11" style="stroke:#181818;stroke-width:1.0;"/><path d="M84.7779,1175.2706 Q84.1997,1175.5675 83.5591,1175.7081 Q82.9185,1175.8644 82.2154,1175.8644 Q79.7154,1175.8644 78.3872,1174.2238 Q77.0747,1172.5675 77.0747,1169.4425 Q77.0747,1166.3175 78.3872,1164.6613 Q79.7154,1163.005 82.2154,1163.005 Q82.9185,1163.005 83.5591,1163.1613 Q84.2154,1163.3175 84.7779,1163.6144 L84.7779,1166.3331 Q84.1529,1165.755 83.5591,1165.4894 Q82.9654,1165.2081 82.3404,1165.2081 Q80.9966,1165.2081 80.3091,1166.2863 Q79.6216,1167.3488 79.6216,1169.4425 Q79.6216,1171.5363 80.3091,1172.6144 Q80.9966,1173.6769 82.3404,1173.6769 Q82.9654,1173.6769 83.5591,1173.4113 Q84.1529,1173.13 84.7779,1172.5519 L84.7779,1175.2706 Z " fill="#000000"/><text fill="#000000" font-family="sans-serif" font-size="14" lengthAdjust="spacing" textLength="139.5488" x="102.3091" y="1174.4767">PlotDataDescription</text><line style="stroke:#181818;stroke-width:0.5;" x1="37.48" x2="274.187" y1="1185.63" y2="1185.63"/><text fill="#000000" font-family="sans-serif" font-size="14" lengthAdjust="spacing" textLength="81.6758" x="42.48" y="1202.6251">data_object</text><text fill="#000000" font-family="sans-serif" font-size="14" lengthAdjust="spacing" textLength="69.8086" x="42.48" y="1218.922">data_type</text><text fill="#000000" font-family="sans-serif" font-size="14" lengthAdjust="spacing" textLength="38.2402" x="42.48" y="1235.2189">value</text><line style="stroke:#181818;stroke-width:0.5;" x1="37.48" x2="274.187" y1="1242.5206" y2="1242.5206"/><text fill="#000000" font-family="sans-serif" font-size="14" lengthAdjust="spacing" textLength="79.8301" x="42.48" y="1259.5157">axis_label()</text><text fill="#000000" font-family="sans-serif" font-size="14" lengthAdjust="spacing" textLength="226.707" x="42.48" y="1275.8126">get_data(plot_error, data_index)</text></g><!--class flap.plot.PlotID--><g id="elem_flap.plot.PlotID"><rect codeLine="160" fill="#F1F1F1" height="227.2656" id="flap.plot.PlotID" rx="2.5" ry="2.5" style="stroke:#181818;stroke-width:0.5;" width="340.0703" x="309.8" y="1104.73"/><ellipse cx="454.9372" cy="1120.73" fill="#ADD1B2" rx="11" ry="11" style="stroke:#181818;stroke-width:1.0;"/><path d="M457.906,1126.3706 Q457.3278,1126.6675 456.6872,1126.8081 Q456.0466,1126.9644 455.3435,1126.9644 Q452.8435,1126.9644 451.5153,1125.3238 Q450.2028,1123.6675 450.2028,1120.5425 Q450.2028,1117.4175 451.5153,1115.7613 Q452.8435,1114.105 455.3435,1114.105 Q456.0466,1114.105 456.6872,1114.2613 Q457.3435,1114.4175 457.906,1114.7144 L457.906,1117.4331 Q457.281,1116.855 456.6872,1116.5894 Q456.0935,1116.3081 455.4685,1116.3081 Q454.1247,1116.3081 453.4372,1117.3863 Q452.7497,1118.4488 452.7497,1120.5425 Q452.7497,1122.6363 453.4372,1123.7144 Q454.1247,1124.7769 455.4685,1124.7769 Q456.0935,1124.7769 456.6872,1124.5113 Q457.281,1124.23 457.906,1123.6519 L457.906,1126.3706 Z " fill="#000000"/><text fill="#000000" font-family="sans-serif" font-size="14" lengthAdjust="spacing" textLength="41.2959" x="475.4372" y="1125.5767">PlotID</text><line style="stroke:#181818;stroke-width:0.5;" x1="310.8" x2="648.8703" y1="1136.73" y2="1136.73"/><text fill="#000000" font-family="sans-serif" font-size="14" lengthAdjust="spacing" textLength="32.7715" x="315.8" y="1153.7251">axes</text><text fill="#000000" font-family="sans-serif" font-size="14" lengthAdjust="spacing" textLength="92.2578" x="315.8" y="1170.022">base_subplot</text><text fill="#000000" font-family="sans-serif" font-size="14" lengthAdjust="spacing" textLength="40.9473" x="315.8" y="1186.3189">figure</text><text fill="#000000" font-family="sans-serif" font-size="14" lengthAdjust="spacing" textLength="148.1279" x="315.8" y="1202.6157">number_of_plots : int</text><text fill="#000000" font-family="sans-serif" font-size="14" lengthAdjust="spacing" textLength="85.7432" x="315.8" y="1218.9126">options : list</text><text fill="#000000" font-family="sans-serif" font-size="14" lengthAdjust="spacing" textLength="99.5449" x="315.8" y="1235.2095">plot_data : list</text><text fill="#000000" font-family="sans-serif" font-size="14" lengthAdjust="spacing" textLength="151.4912" x="315.8" y="1251.5064">plot_subtype : int, list</text><text fill="#000000" font-family="sans-serif" font-size="14" lengthAdjust="spacing" textLength="97.2617" x="315.8" y="1267.8032">plot_type : str</text><text fill="#000000" font-family="sans-serif" font-size="14" lengthAdjust="spacing" textLength="115.0557" x="315.8" y="1284.1001">plt_axis_list : list</text><line style="stroke:#181818;stroke-width:0.5;" x1="310.8" x2="648.8703" y1="1291.4019" y2="1291.4019"/><text fill="#000000" font-family="sans-serif" font-size="14" lengthAdjust="spacing" textLength="328.0703" x="315.8" y="1308.397">check_axes(d, axes, clear, default_axes, force)</text><text fill="#000000" font-family="sans-serif" font-size="14" lengthAdjust="spacing" textLength="45.459" x="315.8" y="1324.6939">clear()</text></g><!--class flap.coordinate.Unit--><g id="elem_flap.coordinate.Unit"><rect codeLine="173" fill="#F1F1F1" height="96.8906" id="flap.coordinate.Unit" rx="2.5" ry="2.5" style="stroke:#181818;stroke-width:0.5;" width="282.1768" x="1581.75" y="72.19"/><ellipse cx="1704.3389" cy="88.19" fill="#ADD1B2" rx="11" ry="11" style="stroke:#181818;stroke-width:1.0;"/><path d="M1707.3076,93.8306 Q1706.7295,94.1275 1706.0889,94.2681 Q1705.4482,94.4244 1704.7451,94.4244 Q1702.2451,94.4244 1700.917,92.7838 Q1699.6045,91.1275 1699.6045,88.0025 Q1699.6045,84.8775 1700.917,83.2213 Q1702.2451,81.565 1704.7451,81.565 Q1705.4482,81.565 1706.0889,81.7213 Q1706.7451,81.8775 1707.3076,82.1744 L1707.3076,84.8931 Q1706.6826,84.315 1706.0889,84.0494 Q1705.4951,83.7681 1704.8701,83.7681 Q1703.5264,83.7681 1702.8389,84.8463 Q1702.1514,85.9088 1702.1514,88.0025 Q1702.1514,90.0963 1702.8389,91.1744 Q1703.5264,92.2369 1704.8701,92.2369 Q1705.4951,92.2369 1706.0889,91.9713 Q1706.6826,91.69 1707.3076,91.1119 L1707.3076,93.8306 Z " fill="#000000"/><text fill="#000000" font-family="sans-serif" font-size="14" lengthAdjust="spacing" textLength="28.499" x="1724.8389" y="93.0367">Unit</text><line style="stroke:#181818;stroke-width:0.5;" x1="1582.75" x2="1862.9268" y1="104.19" y2="104.19"/><text fill="#000000" font-family="sans-serif" font-size="14" lengthAdjust="spacing" textLength="71.8594" x="1587.75" y="121.1851">name : str</text><text fill="#000000" font-family="sans-serif" font-size="14" lengthAdjust="spacing" textLength="59.2813" x="1587.75" y="137.482">unit : str</text><line style="stroke:#181818;stroke-width:0.5;" x1="1582.75" x2="1862.9268" y1="144.7838" y2="144.7838"/><text fill="#000000" font-family="sans-serif" font-size="14" lengthAdjust="spacing" textLength="270.1768" x="1587.75" y="161.7789">title(language, complex_txt, new_unit)</text></g><!--link flap.coordinate.CoordinateMode to flap.coordinate.Coordinate--><g id="link_flap.coordinate.CoordinateMode_flap.coordinate.Coordinate"><path codeLine="178" d="M1356.83,161.09 C1356.83,232.15 1356.83,373.49 1356.83,494.54 " fill="none" id="flap.coordinate.CoordinateMode-to-flap.coordinate.Coordinate" style="stroke:#181818;stroke-width:1.0;"/><polygon fill="#181818" points="1356.83,506.54,1360.83,500.54,1356.83,494.54,1352.83,500.54,1356.83,506.54" style="stroke:#181818;stroke-width:1.0;"/><text fill="#000000" font-family="sans-serif" font-size="13" lengthAdjust="spacing" textLength="36.8672" x="1357.83" y="277.3369">mode</text></g><!--link flap.coordinate.Unit to flap.coordinate.Coordinate--><g id="link_flap.coordinate.Unit_flap.coordinate.Coordinate"><path codeLine="179" d="M1652.22,169.45 C1605.26,204.22 1545.05,254.92 1504.83,311.27 C1463,369.87 1434.6834,430.7643 1410.9634,495.4143 " fill="none" id="flap.coordinate.Unit-to-flap.coordinate.Coordinate" style="stroke:#181818;stroke-width:1.0;"/><polygon fill="#181818" points="1406.83,506.68,1412.6519,502.425,1410.9634,495.4143,1405.1415,499.6694,1406.83,506.68" style="stroke:#181818;stroke-width:1.0;"/><text fill="#000000" font-family="sans-serif" font-size="13" lengthAdjust="spacing" textLength="25.1875" x="1540.83" y="277.3369">unit</text></g><!--link flap.coordinate.Unit to flap.data_object.DataObject--><g id="link_flap.coordinate.Unit_flap.data_object.DataObject"><path codeLine="180" d="M1721.58,169.5 C1720.91,197.18 1720.17,232.69 1719.83,264.27 C1719.75,271.82 1718.86,273.77 1719.83,281.27 C1721.47,293.76 1721.3937,294.5855 1723.5337,307.3355 " fill="none" id="flap.coordinate.Unit-to-flap.data_object.DataObject" style="stroke:#181818;stroke-width:1.0;"/><polygon fill="#181818" points="1725.52,319.17,1728.4717,312.5907,1723.5337,307.3355,1720.582,313.9149,1725.52,319.17" style="stroke:#181818;stroke-width:1.0;"/><text fill="#000000" font-family="sans-serif" font-size="13" lengthAdjust="spacing" textLength="60.9692" x="1720.83" y="277.3369">data_unit</text></g><!--link flap.coordinate.Unit to flap.data_object.DataObject--><g id="link_flap.coordinate.Unit_flap.data_object.DataObject"><path codeLine="181" d="M1748.57,169.41 C1761.95,196.47 1777.26,231.39 1785.83,264.27 C1790.48,282.09 1792.2986,288.7008 1795.9286,307.3608 " fill="none" id="flap.coordinate.Unit-to-flap.data_object.DataObject-1" style="stroke:#181818;stroke-width:1.0;"/><polygon fill="#181818" points="1798.22,319.14,1801.0007,312.4866,1795.9286,307.3608,1793.1479,314.0142,1798.22,319.14" style="stroke:#181818;stroke-width:1.0;"/><text fill="#000000" font-family="sans-serif" font-size="13" lengthAdjust="spacing" textLength="60.9692" x="1788.83" y="277.3369">data_unit</text></g><!--SRC=[fLTHZ-Gc37xVNn7TKwwQcn-mRsst9wrqRK_QLkeROX9dXXu9AP3TcLRzxxKD8P39xexKbmHiOuonFni7lXfa3swK3Jp1AAtqnbQ36U2kqTAvwiEFPkZKyKCbNTLfEUuRdky3kVhdhge2fRgl0kshj0uiqZkbGP1sP3blx_vTL1hRga5woDNEjFt23kg5bSCHSDIg7WQdp22qSXu9lMc9xavovB-NrlCVHlnDWwBPizGJ23MqS4uprkZGBbAqguPMMYilCviO2wavaR18cxlw8zaYlQpf8tZtNSKRx2epUfAPHS9EcI0p_6K4rgBSCFLWLSEpmLplLQx4Yy6JUB2ZqIiMUbWDH-6cGzI-uUwVqL_lk9n4sEtmrwHQz8uSFBhZO8n68fz6k4lV0sxNp8oqrGEQzElXJsZyiWsRQPYuN_WnSkPjNVHNuVbmG3FP1kQPLrwdIRnWi1PZzlekuJmArUBWX0nZYQI6pim1Ksmb3qxmtVD5oBOLYsrrPkOkDseNjoXklLmR3vwfY972egDhLnoyMZJ35HgRfgijTBlg1j4JDD_u29dvb89RyPbPUHrtj6XR21Mf1ZOb64hgDT7Sf3qaIcOhyyb3Dvwz1IrMfmvaRs6unSySHp4ACZB264eBJlZtbHp1Rrp_R8pgvJ4aFfrGTDRqukgcc13iO9LZszsmyNYIBaJlg8slvPc2rMdL82gaWOWBa33rFNCIXPO9meuuB1cgPTNMD6BU7r6uLzvjsqRI5gIkm-080rWEeYMNcENaCzHKASBPSGDl6gEPXJP3yFjoZfNPinoTpPjacfjN16JioWJCrXPh5faCFJyZXZqXVCWZR6DQ9i2WbW10TDFG-5GnY9wjgn4svh18h80hTO4n555C87MxbVfKPuBIfJR5vP406ZmKkmTt1_mAKJuKvhahYSAEvLY9_8hY5LzWDb_947A_jNbn6N_qUha8-eXph_UHmpTm0jaYkl-a0G676m9WWmK4obpu5qv6yMOirfA_uxewIgDXWR0B_SAEMmrAt3wZSYunY64UeFV9gfe-8XnEUYoXXzb5hsqHymXl6tCa9GfHNwn2hIjoyjJZ7DMRzJvnsL_OWnouOrirK5WrHyQgCj_33tCLXHMIYvnFma7fsyA82vEMDczMlhRjR-YtnMf2dtsa1clne9ayihyV45V9Q-jLEI_a9ixmTZzZ12S6aSz2DZuCOXWGViOVzncOSyCpM2fVPNVOop7-A7X3E-mnzuI6Pz0KM8hZAEJiCZgd4QkPB5OfZnKXzCkTDf9agNs1JeNiG3gMNZ-J8emjL6o-APfSB3I0P_b6pPB6qZf9Rg6rQRZ3lw- -cEENCE6-qf9VVi4Vpg9YmdivELZQFvwAm-GzU-477iIA4rgjl78mD9kN3Nat0hJPANc-8UVfrFJ7pa4WehT0bZ_nW9hrNd9BZnK1V-SeV5xwRfhDWqjaNmhsPHxypOC51YI7Hsm7mrXmOLN-OnbzrDC-W6ki6b-9mPK4HsA6TgctlV0hXi63GqyveUK1T86pDRkOUvNOZCPkgJ3gyM73ZiU7a0GXj0_OBz1pWTWXU2OB2Gs4wVYyIm0luHPTn8R4kCn9yGaI5kuALgJJQv0eNeH3eiIYWtjOGKPIYGnzJAD1qd6XanEl8c9diC0nm18t1v7VCM4tSOyO2KII8PJVQS8lZ7fE6GRrKMElvi_qk80NHWFQwvqtrATFtxtrihqFZzTD0zzToW-VjvU-ykgwprvE_rV1Vm00]--></g></svg>